<svg width="1484" height="809" viewBox="0 0 1484 809" fill="none" xmlns="http://www.w3.org/2000/svg">
<path fill-rule="evenodd" clip-rule="evenodd" d="M496.666 568C483.411 568 472.666 578.745 472.666 592V669C472.666 682.255 483.411 693 496.666 693H594.026V660H518.184C515.974 660 514.184 658.209 514.184 656V603C514.184 600.791 515.975 599 518.184 599H594.026V568H496.666Z" fill="#E70B30"/>
<path fill-rule="evenodd" clip-rule="evenodd" d="M667.965 568C681.22 568 691.965 578.745 691.965 592V669C691.965 682.255 681.22 693 667.965 693H591.896V660H646.447C648.656 660 650.447 658.209 650.447 656V603C650.447 600.791 648.656 599 646.447 599H591.896V568H667.965Z" fill="#E70B30"/>
<path fill-rule="evenodd" clip-rule="evenodd" d="M260.332 568C247.077 568 236.332 578.745 236.332 592V669C236.332 682.255 247.077 693 260.332 693H442.857V568H260.332ZM281.85 599C279.641 599 277.85 600.791 277.85 603V656C277.85 658.209 279.641 660 281.85 660H442.857V599H281.85Z" fill="#E70B30"/>
<path d="M1082.66 568H1041.14V669C1041.14 682.255 1052.58 693 1066.69 693H1247.67V660H1086.92C1084.57 660 1082.66 658.209 1082.66 656V568Z" fill="#E70B2F"/>
<path d="M1318.99 568H1277.47V669C1277.47 682.255 1288.91 693 1303.02 693H1484V660H1323.25C1320.9 660 1318.99 658.209 1318.99 656V568Z" fill="#E70B2F"/>
<path fill-rule="evenodd" clip-rule="evenodd" d="M0 592C0 578.745 10.7452 568 24 568H206.525V599H45.5179C43.3088 599 41.5179 600.791 41.5179 603V611C41.5179 613.209 43.3088 615 45.5179 615H206.525V645H45.5179C43.3088 645 41.5179 646.791 41.5179 649V657C41.5179 659.209 43.3088 661 45.5179 661H206.525V693H24C10.7452 693 0 682.255 0 669V592Z" fill="#E70B30"/>
<rect x="964.494" y="568" width="43.6471" height="125" fill="#E70B31"/>
<path d="M805.207 682.631L721.773 568H769.905L828.23 646.39L886.554 568H934.686L851.252 682.631C845.856 688.951 837.549 693 828.23 693C818.911 693 810.603 688.951 805.207 682.631Z" fill="#E70B30"/>
<path d="M375.12 750.94H391.68C395.4 750.94 398.68 751.78 401.52 753.46C404.36 755.1 406.56 757.5 408.12 760.66C409.72 763.78 410.52 767.52 410.52 771.88C410.52 776.32 409.72 780.12 408.12 783.28C406.52 786.44 404.28 788.84 401.4 790.48C398.56 792.12 395.28 792.94 391.56 792.94H375.12V750.94ZM389.82 784.54C393.1 784.54 395.7 783.6 397.62 781.72C399.54 779.84 400.5 776.56 400.5 771.88C400.5 767.2 399.54 763.92 397.62 762.04C395.74 760.16 393.14 759.22 389.82 759.22H384.18V784.54H389.82ZM449.745 751H459.165V793H449.745V751ZM517.027 793.54C513.107 793.54 509.767 792.52 507.007 790.48C504.287 788.44 502.247 785.78 500.887 782.5C499.527 779.22 498.847 775.72 498.847 772C498.847 768.16 499.547 764.58 500.947 761.26C502.387 757.94 504.547 755.26 507.427 753.22C510.307 751.18 513.827 750.16 517.987 750.16C522.747 750.16 526.647 751.5 529.687 754.18C532.767 756.82 534.927 760.28 536.167 764.56H526.327C525.807 762.68 524.847 761.18 523.447 760.06C522.047 758.94 520.247 758.38 518.047 758.38C514.887 758.38 512.467 759.64 510.787 762.16C509.107 764.68 508.267 768.04 508.267 772.24C508.267 776.64 509.167 780.06 510.967 782.5C512.767 784.9 515.287 786.1 518.527 786.1C521.327 786.1 523.447 785.24 524.887 783.52C526.367 781.8 527.127 779.78 527.167 777.46V776.68H519.307V770.02H536.347V793H529.447V787.06H528.967C526.607 791.38 522.627 793.54 517.027 793.54ZM577.473 751H586.893V793H577.473V751ZM657.595 759.16H646.555V793H637.255V759.16H626.215V751H657.595V759.16ZM716.473 783.28H703.033L700.033 793H690.553L705.493 751H714.193L729.013 793H719.533L716.473 783.28ZM714.193 776.14L709.873 762.58H709.513L705.313 776.14H714.193ZM793.624 784.84V793H766.564V751H775.984L775.924 784.84H793.624ZM898.121 793.54C894.081 793.54 890.601 792.56 887.681 790.6C884.801 788.6 882.601 785.94 881.081 782.62C879.601 779.3 878.861 775.7 878.861 771.82C878.861 767.94 879.601 764.36 881.081 761.08C882.601 757.76 884.801 755.12 887.681 753.16C890.601 751.16 894.081 750.16 898.121 750.16C903.041 750.16 907.061 751.6 910.181 754.48C913.301 757.36 915.321 761.08 916.241 765.64H907.181C906.701 763.56 905.661 761.82 904.061 760.42C902.501 759.02 900.561 758.32 898.241 758.32C895.041 758.32 892.621 759.58 890.981 762.1C889.381 764.58 888.581 767.82 888.581 771.82C888.581 775.9 889.381 779.18 890.981 781.66C892.621 784.14 895.041 785.38 898.241 785.38C900.521 785.38 902.421 784.7 903.941 783.34C905.501 781.98 906.541 780.36 907.061 778.48H916.001C915.121 782.88 913.121 786.5 910.001 789.34C906.921 792.14 902.961 793.54 898.121 793.54ZM955.44 751H964.86V793H955.44V751ZM1035.56 759.16H1024.52V793H1015.22V759.16H1004.18V751H1035.56V759.16ZM1086.43 793V778.66L1072.63 751H1082.35L1090.93 769.3H1091.23L1099.81 751H1109.53L1095.73 778.66V793H1086.43Z" fill="#333333"/>
<path fill-rule="evenodd" clip-rule="evenodd" d="M668 232C705.003 232 735 202.003 735 165C735 127.997 705.003 98 668 98C630.997 98 601 127.997 601 165C601 202.003 630.997 232 668 232ZM668 196C685.121 196 699 182.121 699 165C699 147.879 685.121 134 668 134C650.879 134 637 147.879 637 165C637 182.121 650.879 196 668 196Z" fill="#0397EC"/>
<path fill-rule="evenodd" clip-rule="evenodd" d="M814 232C851.003 232 881 202.003 881 165C881 127.997 851.003 98 814 98C776.997 98 747 127.997 747 165C747 202.003 776.997 232 814 232ZM814 196C831.121 196 845 182.121 845 165C845 147.879 831.121 134 814 134C796.879 134 783 147.879 783 165C783 182.121 796.879 196 814 196Z" fill="#0397EC"/>
<path fill-rule="evenodd" clip-rule="evenodd" d="M877.375 319.209C914.399 270.449 944 212.687 944 164C944 92.7553 886.245 35 815 35C800.296 35 786.166 37.4602 773 41.9915L713.722 35C685.727 57.0098 665.072 87.9363 656.039 123.5H692.486C690.581 129.266 689.071 135.212 687.99 141.305C682.593 136.747 675.617 134 668 134C662.591 134 657.505 135.386 653.078 137.821C665.612 59.6897 733.335 0 815 0C905.575 0 979 73.4253 979 164C979 285 837 426 815 426C794.702 426 672.254 305.974 653.429 192.369C657.772 194.686 662.733 196 668 196C675.747 196 682.831 193.158 688.265 188.46C695.85 231.283 721.637 278.399 752.625 319.209C770.58 342.856 789.013 362.711 803.804 376.333C808.03 380.224 811.786 383.448 815 386.025C818.214 383.448 821.97 380.224 826.196 376.333C840.987 362.711 859.42 342.856 877.375 319.209Z" fill="#0396EB"/>
<path fill-rule="evenodd" clip-rule="evenodd" d="M790.421 207C792.133 201 793.539 195.053 794.605 189.185C799.916 193.449 806.66 196 814 196C819.718 196 825.074 194.452 829.673 191.752C828.849 196.825 827.817 201.912 826.596 207H790.421ZM730.375 319.209C712.42 342.856 693.987 362.711 679.196 376.333C674.97 380.224 671.214 383.448 668 386.025C664.786 383.448 661.03 380.224 656.804 376.333C642.013 362.711 623.58 342.856 605.625 319.209C568.601 270.449 539 212.687 539 164C539 92.7553 596.755 35 668 35C731.253 35 783.872 80.5242 794.882 140.595C800.149 136.464 806.787 134 814 134C819.863 134 825.347 135.628 830.023 138.456C817.755 60.0135 749.886 0 668 0C577.425 0 504 73.4253 504 164C504 285 646 426 668 426C678.697 426 717.766 392.664 755.086 344.5L730.375 319.209Z" fill="#0396EB"/>
</svg>
